<?xml version="1.0" encoding="UTF-8"?>
<svg width="20px" height="16px" viewBox="0 0 20 16" version="1.1" xmlns="http://www.w3.org/2000/svg" xmlns:xlink="http://www.w3.org/1999/xlink">
    <!-- Generator: Sketch 51.2 (57519) - http://www.bohemiancoding.com/sketch -->
    <title>alignment</title>
    <desc>Created with Sketch.</desc>
    <defs></defs>
    <g id="Page-1" stroke="none" stroke-width="1" fill="none" fill-rule="evenodd">
        <g id="attachment" transform="translate(-899.000000, -116.000000)" fill="#9299B9" fill-rule="nonzero">
            <g id="alignment" transform="translate(899.000000, 116.000000)">
                <path d="M3.47644231,4.5 C2.91884713,4.5 2.46682692,4.94771525 2.46682692,5.5 C2.46682692,6.05228475 2.91884713,6.5 3.47644231,6.5 L16.0427885,6.5 C16.6003836,6.5 17.0524038,6.05228475 17.0524038,5.5 C17.0524038,4.94771525 16.6003836,4.5 16.0427885,4.5 L3.47644231,4.5 Z" id="Shape"></path>
                <path d="M1.12067308,2.16666667 L18.3985577,2.16666667 C18.9561529,2.16666667 19.4081731,1.71895142 19.4081731,1.16666667 C19.4081731,0.614381917 18.9561529,0.166666667 18.3985577,0.166666667 L1.12067308,0.166666667 C0.563077897,0.166666667 0.111057692,0.614381917 0.111057692,1.16666667 C0.111057692,1.71895142 0.563077897,2.16666667 1.12067308,2.16666667 Z" id="Shape"></path>
                <path d="M1.12067308,11.1666667 L18.3985577,11.1666667 C18.9561529,11.1666667 19.4081731,10.7189514 19.4081731,10.1666667 C19.4081731,9.61438192 18.9561529,9.16666667 18.3985577,9.16666667 L1.12067308,9.16666667 C0.563077897,9.16666667 0.111057692,9.61438192 0.111057692,10.1666667 C0.111057692,10.7189514 0.563077897,11.1666667 1.12067308,11.1666667 Z" id="Shape"></path>
                <path d="M4.82259615,13.8333333 C4.26500097,13.8333333 3.81298077,14.2810486 3.81298077,14.8333333 C3.81298077,15.3856181 4.26500097,15.8333333 4.82259615,15.8333333 L14.6966346,15.8333333 C15.2542298,15.8333333 15.70625,15.3856181 15.70625,14.8333333 C15.70625,14.2810486 15.2542298,13.8333333 14.6966346,13.8333333 L4.82259615,13.8333333 Z" id="Shape"></path>
            </g>
        </g>
    </g>
</svg>