<?xml version="1.0" encoding="UTF-8"?>
<svg width="12px" height="6px" viewBox="0 0 12 6" version="1.1" xmlns="http://www.w3.org/2000/svg" xmlns:xlink="http://www.w3.org/1999/xlink">
    <!-- Generator: Sketch 51.2 (57519) - http://www.bohemiancoding.com/sketch -->
    <title>arrow_1</title>
    <desc>Created with Sketch.</desc>
    <defs></defs>
    <g id="Page-1" stroke="none" stroke-width="1" fill="none" fill-rule="evenodd">
        <g id="attachment" transform="translate(-240.000000, -51.000000)" fill="#FFFFFF" fill-rule="nonzero">
            <g id="arrow_1" transform="translate(240.000000, 51.000000)">
                <path d="M5.84589892,5.85479399 C5.98683096,5.84471626 6.1203211,5.78770243 6.2250493,5.69285832 L11.2804046,1.14304238 C11.448346,0.992071046 11.5229799,0.7629672 11.4761887,0.542043577 C11.4293975,0.321119955 11.268291,0.141945462 11.0535646,0.0720224147 C10.8388382,0.00209936764 10.6031191,0.0520524346 10.4352123,0.203062264 L5.80244814,4.37372656 L1.16969531,0.203062264 C1.00179411,0.0520139027 0.766054619,0.00203295462 0.551304332,0.0719524253 C0.336554044,0.141871896 0.175430357,0.32106554 0.128645268,0.542012533 C0.0818601793,0.762959526 0.156524009,0.992080711 0.324503152,1.14304238 L5.37985836,5.69285832 C5.50684894,5.80774962 5.67502816,5.86618705 5.84589892,5.85479399 Z" id="Shape"></path>
            </g>
        </g>
    </g>
</svg>