<?xml version="1.0" encoding="UTF-8"?>
<svg width="20px" height="18px" viewBox="0 0 20 18" version="1.1" xmlns="http://www.w3.org/2000/svg" xmlns:xlink="http://www.w3.org/1999/xlink">
    <!-- Generator: Sketch 51.2 (57519) - http://www.bohemiancoding.com/sketch -->
    <title>attachment</title>
    <desc>Created with Sketch.</desc>
    <defs></defs>
    <g id="Page-1" stroke="none" stroke-width="1" fill="none" fill-rule="evenodd">
        <g id="attachment" transform="translate(-5.000000, -498.000000)" fill="#9299B9" fill-rule="nonzero">
            <g transform="translate(5.000000, 498.000000)" id="Shape">
                <path d="M18.9196734,1.11618559 C18.2277386,0.419238921 17.2860338,0.0286234587 16.3046455,0.0314821609 C15.3186513,0.0314821609 14.3898162,0.417854093 13.6924754,1.11618559 L9.09831424,5.7168737 L9.1011722,5.71973572 L3.99400828,10.8355864 C3.58519268,11.2421348 3.35571217,11.7955254 3.35668451,12.3724881 C3.35668451,12.9534771 3.58246287,13.5001218 3.99400828,13.9122519 C4.40412469,14.3229509 4.94999391,14.5490501 5.53015859,14.5490501 C6.11032326,14.5490501 6.65619248,14.3229509 7.06487993,13.9122519 L15.7259098,5.24034832 L14.8085065,4.3202107 L6.14890564,12.9921142 C5.98304311,13.1525114 5.76071743,13.240951 5.53015859,13.2382475 C5.30032259,13.2408031 5.07866287,13.1529381 4.91284051,12.9935453 C4.74790925,12.8296522 4.65514425,12.6066004 4.65514425,12.3739191 C4.65514425,12.1412378 4.74790925,11.918186 4.91284051,11.754293 L14.6727537,1.98051394 L14.6698957,1.97622093 C15.1157365,1.56122884 15.6916143,1.33226769 16.3046455,1.33226769 C16.9411563,1.32997332 17.5522378,1.58226851 18.0021877,2.03312633 C18.4521376,2.48398414 18.7037105,3.09608408 18.7010399,3.73349774 C18.7010399,4.37458896 18.4523979,4.978474 18.0008412,5.43067228 L13.5824442,9.85534649 L13.5067084,9.93262087 L7.99085705,15.4548776 C7.25740919,16.1928633 6.25979054,16.6065951 5.22007057,16.6039764 C4.17982422,16.607137 3.18156141,16.1933515 2.44785512,15.4548776 C1.70976947,14.7204558 1.2960198,13.7206863 1.29895758,12.6787237 C1.29895758,11.6283644 1.70621603,10.6424004 2.44642614,9.90113871 L11.414686,0.920137618 L10.4958538,0 L1.52902288,8.9824321 C0.546980705,9.96067193 -0.00357348145,11.2916082 1.74565098e-05,12.6787237 C1.74565098e-05,14.0739557 0.543028736,15.3876203 1.52902288,16.3735842 C2.51501703,17.3609792 3.82396001,17.9047619 5.21864159,17.9047619 L5.22007057,17.9047619 C6.61332319,17.9047619 7.92369513,17.3609792 8.90968928,16.3735842 L16.7090459,8.56457801 L16.7904976,8.48157959 L18.9196734,6.34937888 C19.6142301,5.65633817 20.0032088,4.71394031 19.9999801,3.73206673 C19.9999801,2.74324077 19.6155852,1.8145171 18.9182445,1.11618559 L18.9196734,1.11618559 Z"></path>
            </g>
        </g>
    </g>
</svg>