<?xml version="1.0" encoding="UTF-8"?>
<svg width="11px" height="13px" viewBox="0 0 11 13" version="1.1" xmlns="http://www.w3.org/2000/svg" xmlns:xlink="http://www.w3.org/1999/xlink">
    <!-- Generator: Sketch 51.2 (57519) - http://www.bohemiancoding.com/sketch -->
    <title>bold</title>
    <desc>Created with Sketch.</desc>
    <defs></defs>
    <g id="Page-1" stroke="none" stroke-width="1" fill="none" fill-rule="evenodd">
        <g id="attachment" transform="translate(-607.000000, -118.000000)" fill="#9299B9" fill-rule="nonzero">
            <g id="bold" transform="translate(607.000000, 118.000000)">
                <path d="M0,0 L0,0.603123136 L1.22222222,0.603123136 C1.55833333,0.603123136 1.83333333,0.874483321 1.83333333,1.20614577 L1.83333333,11.6585381 C1.83333333,11.9902005 1.55833333,12.2615607 1.22222222,12.2615607 L0.203703704,12.2615607 L0.203703704,12.8645833 L7.33333333,12.8645833 C9.36018519,12.8645833 11,11.2464726 11,9.24644754 C11,7.73889096 10.0616389,6.44118625 8.72737963,5.89836538 C9.60330556,5.32549388 10.1851852,4.33181308 10.1851852,3.21612071 C10.1851852,1.43720394 8.7287037,0 6.92592593,0 L0,0 Z M4.07407407,0.603123136 L5.19444444,0.603123136 C6.6,0.603123136 7.74074074,1.72876538 7.74074074,3.11571744 C7.74074074,4.50266949 6.6,5.62831174 5.19444444,5.62831174 L4.07407407,5.62831174 L4.07407407,0.603123136 Z M4.07407407,6.23133437 L5.7037037,6.23133437 C7.39444444,6.23133437 8.75925926,7.57808492 8.75925926,9.24644754 C8.75925926,10.9148102 7.39444444,12.2615607 5.7037037,12.2615607 L4.07407407,12.2615607 L4.07407407,6.23133437 Z" id="Shape"></path>
            </g>
        </g>
    </g>
</svg>