<?xml version="1.0" encoding="UTF-8"?>
<svg width="17px" height="17px" viewBox="0 0 17 17" version="1.1" xmlns="http://www.w3.org/2000/svg" xmlns:xlink="http://www.w3.org/1999/xlink">
    <!-- Generator: Sketch 51.2 (57519) - http://www.bohemiancoding.com/sketch -->
    <title>calendar</title>
    <desc>Created with Sketch.</desc>
    <defs></defs>
    <g id="Page-1" stroke="none" stroke-width="1" fill="none" fill-rule="evenodd">
        <g id="attachment" transform="translate(-214.000000, -111.000000)" fill="#9299B9" fill-rule="nonzero">
            <g id="calendar" transform="translate(214.000000, 111.000000)">
                <path d="M13.4084507,1.43661972 L14.3661972,1.43661972 C16.2816901,1.43661972 16.7605634,1.91549296 16.7605634,3.83098592 L16.7605634,14.6056338 C16.7605634,16.5211268 16.2816901,17 14.3661972,17 L2.3943662,17 C0.478873239,17 0,16.5211268 0,14.6056338 L0,3.83098592 C0,1.91549296 0.478873239,1.43661972 2.3943662,1.43661972 L3.35211268,1.43661972 L3.35211268,2.3943662 C3.35211268,3.18778936 3.99530923,3.83098592 4.78873239,3.83098592 C5.58215556,3.83098592 6.22535211,3.18778936 6.22535211,2.3943662 L6.22535211,1.43661972 L10.5352113,1.43661972 L10.5352113,2.3943662 C10.5352113,3.18778936 11.1784078,3.83098592 11.971831,3.83098592 C12.7652541,3.83098592 13.4084507,3.18778936 13.4084507,2.3943662 L13.4084507,1.43661972 Z M2.15492958,4.78873239 C1.43661972,4.78873239 1.1971831,5.02816901 1.1971831,5.74647887 L1.1971831,14.8450704 C1.1971831,15.5633803 1.43661972,15.8028169 2.15492958,15.8028169 L14.6056338,15.8028169 C15.3239437,15.8028169 15.5633803,15.5633803 15.5633803,14.8450704 L15.5633803,5.74647887 C15.5633803,5.02816901 15.3239437,4.78873239 14.6056338,4.78873239 L2.15492958,4.78873239 Z M3.35211268,6.46478873 L4.30985915,6.46478873 C5.02816901,6.46478873 5.26760563,6.70422535 5.26760563,7.42253521 L5.26760563,8.38028169 C5.26760563,9.09859155 5.02816901,9.33802817 4.30985915,9.33802817 L3.35211268,9.33802817 C2.63380282,9.33802817 2.3943662,9.09859155 2.3943662,8.38028169 L2.3943662,7.42253521 C2.3943662,6.70422535 2.63380282,6.46478873 3.35211268,6.46478873 Z M7.90140845,6.46478873 L8.85915493,6.46478873 C9.57746479,6.46478873 9.81690141,6.70422535 9.81690141,7.42253521 L9.81690141,8.38028169 C9.81690141,9.09859155 9.57746479,9.33802817 8.85915493,9.33802817 L7.90140845,9.33802817 C7.18309859,9.33802817 6.94366197,9.09859155 6.94366197,8.38028169 L6.94366197,7.42253521 C6.94366197,6.70422535 7.18309859,6.46478873 7.90140845,6.46478873 Z M12.4507042,6.46478873 L13.4084507,6.46478873 C14.1267606,6.46478873 14.3661972,6.70422535 14.3661972,7.42253521 L14.3661972,8.38028169 C14.3661972,9.09859155 14.1267606,9.33802817 13.4084507,9.33802817 L12.4507042,9.33802817 C11.7323944,9.33802817 11.4929577,9.09859155 11.4929577,8.38028169 L11.4929577,7.42253521 C11.4929577,6.70422535 11.7323944,6.46478873 12.4507042,6.46478873 Z M3.35211268,11.0140845 L4.30985915,11.0140845 C5.02816901,11.0140845 5.26760563,11.2535211 5.26760563,11.971831 L5.26760563,12.9295775 C5.26760563,13.6478873 5.02816901,13.8873239 4.30985915,13.8873239 L3.35211268,13.8873239 C2.63380282,13.8873239 2.3943662,13.6478873 2.3943662,12.9295775 L2.3943662,11.971831 C2.3943662,11.2535211 2.63380282,11.0140845 3.35211268,11.0140845 Z M7.90140845,11.0140845 L8.85915493,11.0140845 C9.57746479,11.0140845 9.81690141,11.2535211 9.81690141,11.971831 L9.81690141,12.9295775 C9.81690141,13.6478873 9.57746479,13.8873239 8.85915493,13.8873239 L7.90140845,13.8873239 C7.18309859,13.8873239 6.94366197,13.6478873 6.94366197,12.9295775 L6.94366197,11.971831 C6.94366197,11.2535211 7.18309859,11.0140845 7.90140845,11.0140845 Z M12.4507042,11.0140845 L13.4084507,11.0140845 C14.1267606,11.0140845 14.3661972,11.2535211 14.3661972,11.971831 L14.3661972,12.9295775 C14.3661972,13.6478873 14.1267606,13.8873239 13.4084507,13.8873239 L12.4507042,13.8873239 C11.7323944,13.8873239 11.4929577,13.6478873 11.4929577,12.9295775 L11.4929577,11.971831 C11.4929577,11.2535211 11.7323944,11.0140845 12.4507042,11.0140845 Z M4.78873239,0 C5.31768117,0 5.74647887,0.400211199 5.74647887,0.893896706 L5.74647887,2.45821597 C5.74647887,2.95190148 5.31768117,3.35211268 4.78873239,3.35211268 C4.25978362,3.35211268 3.83098592,2.95190148 3.83098592,2.45821597 L3.83098592,0.893896706 C3.83098592,0.400211199 4.25978362,0 4.78873239,0 Z M11.971831,0 C12.5007798,0 12.9295775,0.400211199 12.9295775,0.893896706 L12.9295775,2.45821597 C12.9295775,2.95190148 12.5007798,3.35211268 11.971831,3.35211268 C11.4428822,3.35211268 11.0140845,2.95190148 11.0140845,2.45821597 L11.0140845,0.893896706 C11.0140845,0.400211199 11.4428822,0 11.971831,0 Z" id="Shape"></path>
            </g>
        </g>
    </g>
</svg>