<?xml version="1.0" encoding="UTF-8"?>
<svg width="15px" height="15px" viewBox="0 0 15 15" version="1.1" xmlns="http://www.w3.org/2000/svg" xmlns:xlink="http://www.w3.org/1999/xlink">
    <!-- Generator: Sketch 51.2 (57519) - http://www.bohemiancoding.com/sketch -->
    <title>close</title>
    <desc>Created with Sketch.</desc>
    <defs></defs>
    <g id="Page-1" stroke="none" stroke-width="1" fill="none" fill-rule="evenodd">
        <g id="attachment" transform="translate(-1572.000000, -159.000000)" fill="#282C44" fill-rule="nonzero">
            <g id="close" transform="translate(1572.000000, 159.000000)">
                <path d="M8.49477273,7.50954545 L14.1122727,1.92272727 C14.3815909,1.65613636 14.3815909,1.22454545 14.1122727,0.958636364 C13.8436364,0.692045455 13.4072727,0.692045455 13.1386364,0.958636364 L7.52590909,6.54068182 L1.86136364,0.875454545 C1.59272727,0.606136364 1.15636364,0.606136364 0.887727273,0.875454545 C0.619090909,1.14545455 0.619090909,1.5825 0.887727273,1.85181818 L6.54818182,7.51295455 L0.867272727,13.1625 C0.598636364,13.4290909 0.598636364,13.8606818 0.867272727,14.1265909 C1.13590909,14.3931818 1.57227273,14.3931818 1.84090909,14.1265909 L7.51704545,8.48181818 L13.1590909,14.1245455 C13.4277273,14.3938636 13.8640909,14.3938636 14.1327273,14.1245455 C14.4013636,13.8545455 14.4013636,13.4175 14.1327273,13.1481818 L8.49477273,7.50954545 Z" id="Close"></path>
            </g>
        </g>
    </g>
</svg>