<?xml version="1.0" encoding="UTF-8"?>
<svg width="18px" height="19px" viewBox="0 0 18 19" version="1.1" xmlns="http://www.w3.org/2000/svg" xmlns:xlink="http://www.w3.org/1999/xlink">
    <!-- Generator: Sketch 51.2 (57519) - http://www.bohemiancoding.com/sketch -->
    <title>delete</title>
    <desc>Created with Sketch.</desc>
    <defs></defs>
    <g id="Page-1" stroke="none" stroke-width="1" fill="none" fill-rule="evenodd">
        <g id="attachment" transform="translate(-1304.000000, -555.000000)" fill="#9299B9">
            <g id="delete" transform="translate(1304.000000, 555.000000)">
                <path d="M16.1518427,3.95822986 L13.493879,3.95822986 L13.493879,1.58325709 C13.493879,0.70854458 12.7619792,0 11.8582887,0 L5.31579234,0 C4.4121468,0 3.680157,0.708588148 3.680157,1.58325709 L3.680157,3.95827343 L1.02223833,3.95827343 C0.458033702,3.95827343 0,4.40166383 0,4.94791803 C0,5.49408509 0.458033702,5.93747549 1.02223833,5.93747549 L1.63563534,5.93747549 L1.63563534,17.4167429 C1.63563534,18.291499 2.36753512,19 3.27122566,19 L13.9029004,19 C14.8065459,19 15.5384907,18.291499 15.5384907,17.4167429 L15.5384907,5.93747549 L16.1518877,5.93747549 C16.7160473,5.93747549 17.174216,5.49408509 17.174216,4.94791803 C17.174171,4.40162027 16.7160023,3.95822986 16.1518427,3.95822986 Z M11.4494023,3.95822986 L5.72463366,3.95822986 L5.72463366,2.8500806 C5.72463366,2.36721769 6.1255988,1.97911493 6.62436361,1.97911493 L10.5496724,1.97911493 C11.0485272,1.97911493 11.4493573,2.36726125 11.4493573,2.8500806 L11.4494023,3.95822986 Z M5.72463366,6.72910404 L5.72463366,16.2291258 C5.72463366,16.6644562 5.35643343,17.0208415 4.906861,17.0208415 C4.45728857,17.0208415 4.08908834,16.6644562 4.08908834,16.2291258 L4.08908834,6.72910404 C4.08908834,6.29390439 4.45724356,5.93747549 4.906861,5.93747549 C5.35647844,5.93747549 5.72463366,6.29390439 5.72463366,6.72910404 Z M9.40492568,6.72910404 L9.40492568,16.2291258 C9.40492568,16.6644562 9.03672545,17.0208415 8.58706301,17.0208415 C8.13744557,17.0208415 7.76929035,16.6644562 7.76929035,16.2291258 L7.76929035,6.72910404 C7.76929035,6.29390439 8.13749057,5.93747549 8.58706301,5.93747549 C9.03672545,5.93747549 9.40492568,6.29390439 9.40492568,6.72910404 Z M13.0849477,6.72910404 L13.0849477,16.2291258 C13.0849477,16.6644562 12.7167474,17.0208415 12.26722,17.0208415 C11.8176026,17.0208415 11.4493573,16.6644562 11.4493573,16.2291258 L11.4493573,6.72910404 C11.4493573,6.29390439 11.8176026,5.93747549 12.26722,5.93747549 C12.7167924,5.93747549 13.0849477,6.29390439 13.0849477,6.72910404 Z" id="Shape"></path>
            </g>
        </g>
    </g>
</svg>