<?xml version="1.0" encoding="UTF-8"?>
<svg width="20px" height="19px" viewBox="0 0 20 19" version="1.1" xmlns="http://www.w3.org/2000/svg" xmlns:xlink="http://www.w3.org/1999/xlink">
    <!-- Generator: Sketch 51.2 (57519) - http://www.bohemiancoding.com/sketch -->
    <title>download</title>
    <desc>Created with Sketch.</desc>
    <defs></defs>
    <g id="Page-1" stroke="none" stroke-width="1" fill="none" fill-rule="evenodd">
        <g id="attachment" transform="translate(-1337.000000, -555.000000)" fill="#9299B9" fill-rule="nonzero">
            <g id="download" transform="translate(1337.609756, 555.000000)">
                <path d="M8.81608287,15.6954889 L6.57899165,13.5034209 L5.33254006,14.7247875 L9.69512195,18.999569 L14.0577038,14.7247875 L12.8112523,13.5034209 L10.5774556,15.6922606 L10.5774556,6.04545455 L8.81608287,6.04545455 L8.81608287,15.6954889 Z M4.11972702,12.0884313 L3.50185866,12.0399442 C1.5056022,11.7399126 0,10.1603588 0,8.26676355 C0,7.02785905 0.647780455,5.9042405 1.68605662,5.19837668 C1.43530023,3.3257695 3.05023167,1.97449555 4.73738914,1.97449555 C5.23428264,1.97449555 5.71424494,2.08351927 6.1429271,2.28520341 C6.81274016,1.29956632 8.73472405,0 11.07227,0 C14.18436,0 16.781863,2.11808373 17.1434338,4.88825005 C18.1211701,5.19837668 19.3902439,6.61341723 19.3902439,8.26676355 C19.3902439,10.1603588 17.8846417,11.7399126 15.8213761,12.0474604 L15.2013554,12.0909091 L11.7867804,12.0474604 L11.7867804,10.3636364 L15.1369111,10.3636364 L15.6207611,10.330211 C16.7858838,10.1552461 17.6274945,9.2730545 17.6274945,8.26361818 C17.6274945,7.38626036 16.991832,6.59538277 16.0332727,6.29250032 L15.4342525,6.10322405 L15.4230943,5.48786845 C15.3856033,3.420323 13.4650869,1.72727273 11.07227,1.72727273 C9.37640627,1.72727273 7.8670882,2.58668245 7.14907716,3.89566673 L6.58469415,4.92457718 L5.74536276,4.09405005 C5.49608355,3.84738514 5.13343134,3.70007555 4.73738914,3.70007555 C3.99085064,3.70007555 3.41532705,4.215359 3.41532705,4.81121368 C3.41532705,4.95902159 3.44936222,5.10170986 3.5154142,5.23537832 L3.90830109,6.03046009 L3.08566823,6.39500359 C2.27317206,6.75505532 1.76274945,7.47631777 1.76274945,8.26361818 C1.76274945,9.2730545 2.60436007,10.1552461 3.70247365,10.3227009 L4.18652993,10.3611577 L7.46230599,10.3616068 L7.46230599,12.0909091 L4.11972702,12.0884313 Z" id="cloud-cloud_download-arrow-down-2-glyph"></path>
            </g>
        </g>
    </g>
</svg>