<?xml version="1.0" encoding="UTF-8"?>
<svg width="17px" height="17px" viewBox="0 0 17 17" version="1.1" xmlns="http://www.w3.org/2000/svg" xmlns:xlink="http://www.w3.org/1999/xlink">
    <!-- Generator: Sketch 51.2 (57519) - http://www.bohemiancoding.com/sketch -->
    <title>gantt</title>
    <desc>Created with Sketch.</desc>
    <defs></defs>
    <g id="Page-1" stroke="none" stroke-width="1" fill="none" fill-rule="evenodd">
        <g id="attachment" transform="translate(-258.000000, -111.000000)" fill="#9299B9" fill-rule="nonzero">
            <g id="gantt" transform="translate(258.000000, 111.000000)">
                <path d="M12.9564495,8.08329341 L12.9564495,9.70234103 L6.48025906,9.70234103 L4.86121144,11.3213886 L3.24216382,9.70234103 L3.24216382,8.08329341 L12.9564495,8.08329341 Z M16.1904932,3.23805857 L16.1904932,15.3809157 C16.1904932,16.2750778 15.4656571,16.9999633 14.5714456,16.9999633 L1.61906462,16.9999633 C0.724902262,16.9999633 1.68380952e-05,16.2750778 1.68380952e-05,15.3809157 L1.68380952e-05,3.23805857 C1.68380952e-05,2.34389621 0.724902343,1.61901079 1.61906462,1.61901079 L2.42858843,1.61901079 L2.42858843,-3.68333333e-05 L4.04763605,-3.68333333e-05 L4.04763605,1.61901079 L12.1428741,1.61901079 L12.1428741,-3.68333333e-05 L13.7619218,-3.68333333e-05 L13.7619218,1.61901079 L14.5714456,1.61901079 C15.4656571,1.61901079 16.1904932,2.34389621 16.1904932,3.23805857 Z M14.5714456,15.3809153 L14.5714456,12.9404362 L11.3374019,12.9404362 L9.7183543,14.5594838 L8.09930668,12.9404362 L8.09930668,11.3213886 L14.5714456,11.3213886 L14.5714456,6.46424571 L1.61906462,6.46424571 L1.61906462,15.3809153 L14.5714456,15.3809153 Z" id="Shape"></path>
            </g>
        </g>
    </g>
</svg>