<?xml version="1.0" encoding="UTF-8"?>
<svg width="10px" height="10px" viewBox="0 0 10 10" version="1.1" xmlns="http://www.w3.org/2000/svg" xmlns:xlink="http://www.w3.org/1999/xlink">
    <!-- Generator: Sketch 51.2 (57519) - http://www.bohemiancoding.com/sketch -->
    <title>Group 3</title>
    <desc>Created with Sketch.</desc>
    <defs></defs>
    <g id="Page-1" stroke="none" stroke-width="1" fill="none" fill-rule="evenodd">
        <g id="attachment" transform="translate(-437.000000, -49.000000)" fill="#9299B9" fill-rule="nonzero">
            <g id="Group-3" transform="translate(437.000000, 49.000000)">
                <path d="M9.02127091,5.79773047 L5.93814191,5.79773047 L5.93814191,9.02128717 C5.93797625,9.56183219 5.49980118,10 4.95908155,10 C4.41819626,10 3.98002119,9.56183219 3.98002119,9.02095585 L3.98002119,5.79773047 L0.979060363,5.79773047 C0.438340731,5.79756481 0.000331323304,5.359397 0,4.81868632 C0,4.27814131 0.438340731,3.83980784 0.979060363,3.83964218 L3.98002119,3.83980784 L3.98002119,0.979044148 C3.98002119,0.438333471 4.41836192,8.8817842e-16 4.95891589,8.8817842e-16 C5.49980118,8.8817842e-16 5.93814191,0.438333471 5.93797625,0.979044148 L5.93814191,3.83964218 L9.02093959,3.83997349 C9.56165922,3.83964218 10.0001656,4.27814131 9.99999995,4.81901764 C10.0001656,5.35972832 9.56165922,5.79773047 9.02127091,5.79773047 Z" id="plus"></path>
            </g>
        </g>
    </g>
</svg>