<?xml version="1.0" encoding="UTF-8"?>
<svg width="9px" height="13px" viewBox="0 0 9 13" version="1.1" xmlns="http://www.w3.org/2000/svg" xmlns:xlink="http://www.w3.org/1999/xlink">
    <!-- Generator: Sketch 51.2 (57519) - http://www.bohemiancoding.com/sketch -->
    <title>italic</title>
    <desc>Created with Sketch.</desc>
    <defs></defs>
    <g id="Page-1" stroke="none" stroke-width="1" fill="none" fill-rule="evenodd">
        <g id="attachment" transform="translate(-638.000000, -118.000000)" fill="#9299B9" fill-rule="nonzero">
            <g id="italic" transform="translate(638.000000, 118.000000)">
                <path d="M5.24656731,12.5642292 L5.14505769,13 L0.0171346154,13 L0.145903846,12.5642292 C0.660461538,12.5515 1.00055769,12.467 1.16619231,12.3900833 C1.43567308,12.2812083 1.63479808,12.1105833 1.76356731,11.9191042 C1.96554808,11.61875 2.17375962,11.0719375 2.38846154,10.2987083 L4.55754808,2.4513125 C4.74109615,1.79914583 4.833,1.304875 4.833,0.972020833 C4.833,0.806 4.79301923,0.6638125 4.71331731,0.548979167 C4.63361538,0.433875 4.51263462,0.345583333 4.35063462,0.284104167 C4.18785577,0.223708333 3.87086538,0.273541667 3.39940385,0.273541667 L3.50922115,0 L8.32482692,0 L8.22383654,0.273541667 C7.83181731,0.2673125 7.54078846,0.271916667 7.35075,0.367791667 C7.07477885,0.495895833 6.86500962,0.657583333 6.72092308,0.89375 C6.57683654,1.1301875 6.39173077,1.6445 6.16508654,2.45645833 L4.00534615,10.2932917 C3.80907692,11.0153333 3.71120192,11.4730417 3.71120192,11.6715625 C3.71120192,11.8313542 3.74910577,11.9659583 3.82621154,12.0775417 C3.90253846,12.1893958 4.02507692,12.3156042 4.19356731,12.3765417 C4.36231731,12.4369375 4.71305769,12.5260417 5.24656731,12.5642292 Z" id="Shape"></path>
            </g>
        </g>
    </g>
</svg>