<?xml version="1.0" encoding="UTF-8"?>
<svg width="24px" height="20px" viewBox="0 0 24 20" version="1.1" xmlns="http://www.w3.org/2000/svg" xmlns:xlink="http://www.w3.org/1999/xlink">
    <!-- Generator: Sketch 51.2 (57519) - http://www.bohemiancoding.com/sketch -->
    <title>Left Indent</title>
    <desc>Created with Sketch.</desc>
    <defs></defs>
    <g id="Page-1" stroke="none" stroke-width="1" fill="none" fill-rule="evenodd">
        <g id="attachment" transform="translate(-439.000000, -114.000000)" fill="#9299B9" fill-rule="nonzero">
            <g id="Left-Indent" transform="translate(439.000000, 114.000000)">
                <path d="M13.0666667,4.21052632 L23.4666667,4.21052632 C23.76,4.21052632 24,3.97368421 24,3.68421053 C24,3.39473684 23.76,3.15789474 23.4666667,3.15789474 L13.0666667,3.15789474 C12.7733333,3.15789474 12.5333333,3.39473684 12.5333333,3.68421053 C12.5333333,3.97368421 12.7733333,4.21052632 13.0666667,4.21052632 Z" id="Shape"></path>
                <path d="M13.0666667,8.42105263 L20,8.42105263 C20.2933333,8.42105263 20.5333333,8.18421053 20.5333333,7.89473684 C20.5333333,7.60526316 20.2933333,7.36842105 20,7.36842105 L13.0666667,7.36842105 C12.7733333,7.36842105 12.5333333,7.60526316 12.5333333,7.89473684 C12.5333333,8.18421053 12.7733333,8.42105263 13.0666667,8.42105263 Z" id="Shape"></path>
                <path d="M23.4666667,11.5789474 L13.0666667,11.5789474 C12.7733333,11.5789474 12.5333333,11.8157895 12.5333333,12.1052632 C12.5333333,12.3947368 12.7733333,12.6315789 13.0666667,12.6315789 L23.4666667,12.6315789 C23.76,12.6315789 24,12.3947368 24,12.1052632 C24,11.8157895 23.76,11.5789474 23.4666667,11.5789474 Z" id="Shape"></path>
                <path d="M17.8666667,15.7894737 L13.0666667,15.7894737 C12.7733333,15.7894737 12.5333333,16.0263158 12.5333333,16.3157895 C12.5333333,16.6052632 12.7733333,16.8421053 13.0666667,16.8421053 L17.8666667,16.8421053 C18.16,16.8421053 18.4,16.6052632 18.4,16.3157895 C18.4,16.0263158 18.16,15.7894737 17.8666667,15.7894737 Z" id="Shape"></path>
                <path d="M10.6666667,0 C10.3733333,0 10.1333333,0.236842105 10.1333333,0.526315789 L10.1333333,19.4736842 C10.1333333,19.7631579 10.3733333,20 10.6666667,20 C10.96,20 11.2,19.7631579 11.2,19.4736842 L11.2,0.526315789 C11.2,0.236842105 10.96,0 10.6666667,0 Z" id="Shape"></path>
                <path d="M9.12,9.57894737 L4.45333333,5.94736842 C4.26666667,5.84210526 4.05333333,5.81578947 3.84,5.89473684 C3.62666667,5.97368421 3.49333333,6.15789474 3.46666667,6.36842105 L3.46666667,9.47368421 L0.533333333,9.47368421 C0.24,9.47368421 0,9.71052632 0,10 C0,10.2894737 0.24,10.5263158 0.533333333,10.5263158 L3.46666667,10.5263158 L3.46666667,13.6315789 C3.49333333,13.8421053 3.62666667,14.0263158 3.84,14.1052632 L4.10666667,14.1578947 C4.24,14.1578947 4.34666667,14.1052632 4.45333333,14.0526316 L9.12,10.4210526 C9.22666667,10.3157895 9.30666667,10.1578947 9.30666667,10 C9.30666667,9.84210526 9.25333333,9.68421053 9.12,9.57894737 Z" id="Shape"></path>
            </g>
        </g>
    </g>
</svg>