<?xml version="1.0" encoding="UTF-8"?>
<svg width="12px" height="10px" viewBox="0 0 12 10" version="1.1" xmlns="http://www.w3.org/2000/svg" xmlns:xlink="http://www.w3.org/1999/xlink">
    <!-- Generator: Sketch 51.2 (57519) - http://www.bohemiancoding.com/sketch -->
    <title>menu</title>
    <desc>Created with Sketch.</desc>
    <defs></defs>
    <g id="Page-1" stroke="none" stroke-width="1" fill="none" fill-rule="evenodd">
        <g id="attachment" transform="translate(-476.000000, -48.000000)" fill="#9299B9" fill-rule="nonzero">
            <g id="menu" transform="translate(476.000000, 48.000000)">
                <path d="M1,2 L11,2 C11.5522847,2 12,1.55228475 12,1 C12,0.44771525 11.5522847,3.38176876e-17 11,0 L1,0 C0.44771525,-3.38176876e-17 6.76353751e-17,0.44771525 0,1 C-6.76353751e-17,1.55228475 0.44771525,2 1,2 Z" id="Shape"></path>
                <path d="M11,4 L1,4 C0.44771525,4 6.76353751e-17,4.44771525 0,5 C-6.76353751e-17,5.55228475 0.44771525,6 1,6 L11,6 C11.5522847,6 12,5.55228475 12,5 C12,4.44771525 11.5522847,4 11,4 Z" id="Shape"></path>
                <path d="M11,8 L1,8 C0.44771525,8 6.76353751e-17,8.44771525 0,9 C-6.76353751e-17,9.55228475 0.44771525,10 1,10 L11,10 C11.5522847,10 12,9.55228475 12,9 C12,8.44771525 11.5522847,8 11,8 Z" id="Shape"></path>
            </g>
        </g>
    </g>
</svg>