<?xml version="1.0" encoding="UTF-8"?>
<svg width="16px" height="16px" viewBox="0 0 16 16" version="1.1" xmlns="http://www.w3.org/2000/svg" xmlns:xlink="http://www.w3.org/1999/xlink">
    <!-- Generator: Sketch 51.2 (57519) - http://www.bohemiancoding.com/sketch -->
    <title>notification</title>
    <desc>Created with Sketch.</desc>
    <defs></defs>
    <g id="Page-1" stroke="none" stroke-width="1" fill="none" fill-rule="evenodd">
        <g id="attachment" transform="translate(-1518.000000, -11.000000)">
            <g id="notification" transform="translate(1518.000000, 11.000000)">
                <g id="noun_notification_1594289" fill="#9299B9" fill-rule="nonzero">
                    <path d="M6.69642857,0 C7.76047118,0 8.62960776,0.862886845 8.67839559,1.94522621 C10.5323061,2.75266289 11.780754,4.63632375 11.780754,6.76862649 L11.780754,9.45572608 C12.6118131,9.52131808 13.2688492,10.2378036 13.2688492,11.1110966 L13.2688492,12.1334497 C13.2688492,12.6276429 12.8792291,13.0268199 12.4001617,13.0268199 L0.992695486,13.0268199 C0.512510218,13.0268199 0.124007937,12.6275141 0.124007937,12.1334497 L0.124007937,11.1110966 C0.124007937,10.2388627 0.780185293,9.52134682 1.61210317,9.45572309 L1.61210317,6.76862649 C1.61210317,4.63733287 2.86084958,2.75331458 4.71444901,1.94552838 C4.76312341,0.862808761 5.63310925,0 6.69642857,0 Z M12.0287698,11.7496807 L12.0287698,11.1110966 C12.0287698,10.9005251 11.8608884,10.7279693 11.6562284,10.7279693 C11.0400931,10.7279693 10.5406746,10.2136004 10.5406746,9.57900031 L10.5406746,6.76862649 C10.5406746,5.03497364 9.44906592,3.5184682 7.87129973,2.99775693 L7.44047619,2.85557193 L7.44047619,2.04126222 C7.44047619,1.62003103 7.10717946,1.27713921 6.69642857,1.27713921 C6.28618502,1.27713921 5.95238095,1.62012409 5.95238095,2.04126222 L5.95238095,2.85565568 L5.52168936,2.99790644 C3.94420007,3.51892672 2.85218254,5.0360225 2.85218254,6.76862649 L2.85218254,9.57900031 C2.85218254,10.2133912 2.35196133,10.7279693 1.7366287,10.7279693 C1.53177125,10.7279693 1.3640873,10.9008349 1.3640873,11.1110966 L1.3640873,11.7496807 L12.0287698,11.7496807 Z M4.34027778,13.0268199 L5.58035714,13.0268199 C5.58035714,13.66163 6.08003934,14.1762452 6.69642857,14.1762452 C7.31281781,14.1762452 7.8125,13.66163 7.8125,13.0268199 L9.05257937,13.0268199 C9.05257937,14.3669745 7.99769472,15.4533844 6.69642857,15.4533844 C5.39516243,15.4533844 4.34027778,14.3669745 4.34027778,13.0268199 Z" id="Shape"></path>
                </g>
                <ellipse id="Oval-2" stroke="#FFFFFF" fill="#398AFF" cx="11.7857143" cy="3.86206897" rx="3.21428571" ry="3.31034483"></ellipse>
            </g>
        </g>
    </g>
</svg>