<?xml version="1.0" encoding="UTF-8"?>
<svg width="18px" height="18px" viewBox="0 0 18 18" version="1.1" xmlns="http://www.w3.org/2000/svg" xmlns:xlink="http://www.w3.org/1999/xlink">
    <!-- Generator: Sketch 51.2 (57519) - http://www.bohemiancoding.com/sketch -->
    <title>paint</title>
    <desc>Created with Sketch.</desc>
    <defs></defs>
    <g id="Page-1" stroke="none" stroke-width="1" fill="none" fill-rule="evenodd">
        <g id="attachment" transform="translate(-382.000000, -115.000000)" fill="#9299B9" fill-rule="nonzero">
            <g id="paint" transform="translate(382.000000, 115.000000)">
                <path d="M15.9782,0 L4.3408,0 C3.5182,0 2.8454,0.673 2.8454,1.4954 L2.8454,2.2432 L2.4036,2.2432 C1.1478,2.2432 0.1264,3.2648 0.1264,4.5204 L0.1264,5.7166 C0.1264,6.9724 1.148,7.9938 2.4036,7.9938 L8.5348,7.9938 C8.9376,7.9938 9.298,8.178 9.5364,8.4668 C9.7218,8.6914 9.8332,8.979 9.8332,9.2922 L9.8332,11.1966 C9.6508,11.24 9.4798,11.3136 9.3258,11.4116 C9.2488,11.4606 9.176,11.5158 9.1084,11.5764 C8.7696,11.8794 8.5554,12.3184 8.5554,12.8064 L8.5554,16.3412 C8.5554,17.2534 9.3018,17.9998 10.214,17.9998 C11.1262,17.9998 11.8726,17.2534 11.8726,16.3412 L11.8726,12.8066 C11.8726,12.456 11.762,12.131 11.5742,11.8634 C11.3864,11.5958 11.1212,11.3854 10.8122,11.2646 L10.8122,9.2924 C10.8122,8.0366 9.7906,7.0152 8.535,7.0152 L2.4036,7.0152 C2.0456,7.0152 1.721,6.8696 1.4858,6.6344 C1.2506,6.3992 1.105,6.0746 1.105,5.7166 L1.105,4.5204 C1.105,3.8044 1.6874,3.222 2.4034,3.222 L2.8452,3.222 L2.8452,3.9698 C2.8452,4.0726 2.8558,4.173 2.8758,4.2702 C2.9158,4.4644 2.9938,4.6452 3.1016,4.8044 C3.1554,4.884 3.2168,4.9582 3.2846,5.026 C3.3184,5.0598 3.354,5.0922 3.391,5.1228 C3.465,5.1838 3.5448,5.238 3.6296,5.2842 C3.8414,5.3996 4.0838,5.4654 4.341,5.4654 L15.9784,5.4654 C16.2354,5.4654 16.4778,5.3996 16.6898,5.2842 C16.7746,5.238 16.8544,5.1838 16.9284,5.1228 C16.9654,5.0922 17.0008,5.06 17.0348,5.026 C17.1026,4.9582 17.164,4.884 17.2178,4.8044 C17.3256,4.6452 17.4036,4.4644 17.4436,4.2702 C17.4636,4.173 17.4742,4.0726 17.4742,3.9698 L17.4742,1.4954 C17.4738,0.673 16.8008,0 15.9782,0 Z" id="Shape"></path>
            </g>
        </g>
    </g>
</svg>