<?xml version="1.0" encoding="UTF-8"?>
<svg width="17px" height="16px" viewBox="0 0 17 16" version="1.1" xmlns="http://www.w3.org/2000/svg" xmlns:xlink="http://www.w3.org/1999/xlink">
    <!-- Generator: Sketch 51.2 (57519) - http://www.bohemiancoding.com/sketch -->
    <title>planner</title>
    <desc>Created with Sketch.</desc>
    <defs></defs>
    <g id="Page-1" stroke="none" stroke-width="1" fill="none" fill-rule="evenodd">
        <g id="attachment" transform="translate(-166.000000, -112.000000)" fill="#9299B9" fill-rule="nonzero">
            <g id="planner" transform="translate(166.000000, 112.000000)">
                <path d="M16.1390977,15.5413534 L0.597744361,15.5413534 C0.267789474,15.5413534 0,15.2735639 0,14.943609 L0,0.597744361 C0,0.267789474 0.267789474,0 0.597744361,0 L16.1390977,0 C16.4690526,0 16.7368421,0.267789474 16.7368421,0.597744361 L16.7368421,14.943609 C16.7368421,15.2735639 16.4690526,15.5413534 16.1390977,15.5413534 Z M1.19548872,14.3458647 L15.5413534,14.3458647 L15.5413534,1.19548872 L1.19548872,1.19548872 L1.19548872,14.3458647 Z" id="Shape"></path>
                <path d="M16.1390977,4.78195489 L0.597744361,4.78195489 C0.267789474,4.78195489 0,4.51416541 0,4.18421053 C0,3.85425564 0.267789474,3.58646617 0.597744361,3.58646617 L16.1390977,3.58646617 C16.4690526,3.58646617 16.7368421,3.85425564 16.7368421,4.18421053 C16.7368421,4.51416541 16.4690526,4.78195489 16.1390977,4.78195489 Z" id="Shape"></path>
                <path d="M16.1390977,8.36842105 L0.597744361,8.36842105 C0.267789474,8.36842105 0,8.10063158 0,7.77067669 C0,7.4407218 0.267789474,7.17293233 0.597744361,7.17293233 L16.1390977,7.17293233 C16.4690526,7.17293233 16.7368421,7.4407218 16.7368421,7.77067669 C16.7368421,8.10063158 16.4690526,8.36842105 16.1390977,8.36842105 Z" id="Shape"></path>
                <path d="M16.1390977,11.9548872 L0.597744361,11.9548872 C0.267789474,11.9548872 0,11.6870977 0,11.3571429 C0,11.027188 0.267789474,10.7593985 0.597744361,10.7593985 L16.1390977,10.7593985 C16.4690526,10.7593985 16.7368421,11.027188 16.7368421,11.3571429 C16.7368421,11.6870977 16.4690526,11.9548872 16.1390977,11.9548872 Z" id="Shape"></path>
                <path d="M5.37969925,15.5413534 C5.04974436,15.5413534 4.78195489,15.2735639 4.78195489,14.943609 L4.78195489,4.18421053 C4.78195489,3.85425564 5.04974436,3.58646617 5.37969925,3.58646617 C5.70965414,3.58646617 5.97744361,3.85425564 5.97744361,4.18421053 L5.97744361,14.943609 C5.97744361,15.2735639 5.70965414,15.5413534 5.37969925,15.5413534 Z" id="Shape"></path>
                <path d="M11.3571429,15.5413534 C11.027188,15.5413534 10.7593985,15.2735639 10.7593985,14.943609 L10.7593985,4.18421053 C10.7593985,3.85425564 11.027188,3.58646617 11.3571429,3.58646617 C11.6870977,3.58646617 11.9548872,3.85425564 11.9548872,4.18421053 L11.9548872,14.943609 C11.9548872,15.2735639 11.6870977,15.5413534 11.3571429,15.5413534 Z" id="Shape"></path>
            </g>
        </g>
    </g>
</svg>