<?xml version="1.0" encoding="UTF-8"?>
<svg width="20px" height="18px" viewBox="0 0 20 18" version="1.1" xmlns="http://www.w3.org/2000/svg" xmlns:xlink="http://www.w3.org/1999/xlink">
    <!-- Generator: Sketch 51.2 (57519) - http://www.bohemiancoding.com/sketch -->
    <title>print</title>
    <desc>Created with Sketch.</desc>
    <defs></defs>
    <g id="Page-1" stroke="none" stroke-width="1" fill="none" fill-rule="evenodd">
        <g id="attachment" transform="translate(-65.000000, -115.000000)" fill="#9299B9" fill-rule="nonzero">
            <g id="print" transform="translate(65.000000, 115.000000)">
                <path d="M14.5662024,10.0303407 L5.43105982,10.0303407 C4.6809759,10.0303407 4.03765605,10.5980806 4.03765605,11.3291801 L4.03765605,16.5486409 C4.03765605,17.2797404 4.6809759,17.8501595 5.43105982,17.8501595 L14.5662024,17.8501595 C15.3162854,17.8501595 15.9596057,17.2797404 15.9596057,16.5486409 L15.9596057,11.3291801 C15.9596057,10.5980806 15.3162854,10.0303407 14.5662024,10.0303407 Z M6.43299592,15.3729901 C5.75956297,15.3729901 5.75956297,14.3687328 6.43299592,14.3687328 L13.5642653,14.3687328 C14.2404351,14.3687328 14.2404351,15.3729901 13.5642653,15.3729901 L6.43299592,15.3729901 Z M6.43299592,13.5090882 C5.75956297,13.5090882 5.75956297,12.5048309 6.43299592,12.5048309 L13.5642653,12.5048309 C14.2404351,12.5048309 14.2404351,13.5090882 13.5642653,13.5090882 L6.43299592,13.5090882 Z" id="Shape"></path>
                <path d="M16.9861798,13.5492593 C18.0018048,13.5492593 18.864126,13.6992285 19.5047095,13.0725707 C19.8058378,12.7779887 19.9947279,12.368252 19.9947279,11.9210224 L19.9947279,5.75354298 C19.9947279,4.85640655 19.2501186,4.1253066 18.3330458,4.1253066 L1.66695423,4.1253066 C0.749881205,4.1253066 0.00527284615,4.85640657 0.00527284615,5.75354298 L0.00527284615,11.9210224 C0.00527284615,12.8154805 0.749881205,13.5492592 1.66695423,13.5492592 L3.01381967,13.5492592 L3.01381967,11.3291801 C3.01381967,10.0490867 4.11704479,9.02608339 5.43106031,9.02608339 L14.5662029,9.02608339 C15.8802174,9.02608339 16.9861803,10.0490867 16.9861803,11.3291801 L16.9861803,13.5492593 L16.9861798,13.5492593 Z M15.0124203,7.45140798 C14.3362505,7.45140798 14.3362505,6.44982795 15.0124203,6.44982795 L17.1367449,6.44982795 C17.8101779,6.44982795 17.8101779,7.45140798 17.1367449,7.45140798 L15.0124203,7.45140798 Z" id="Shape"></path>
                <path d="M4.99031703,3.12104927 L15.009682,3.12104927 L15.009682,1.12324671 C15.009682,0.584964381 14.4594383,0.210041664 13.8900331,0.210041664 L6.10723005,0.210041664 C5.53782387,0.210041664 4.99031751,0.584964356 4.99031751,1.12324671 L4.99031703,3.12104927 Z" id="Shape"></path>
            </g>
        </g>
    </g>
</svg>