<?xml version="1.0" encoding="UTF-8"?>
<svg width="24px" height="20px" viewBox="0 0 24 20" version="1.1" xmlns="http://www.w3.org/2000/svg" xmlns:xlink="http://www.w3.org/1999/xlink">
    <!-- Generator: Sketch 51.2 (57519) - http://www.bohemiancoding.com/sketch -->
    <title>Right Indent</title>
    <desc>Created with Sketch.</desc>
    <defs></defs>
    <g id="Page-1" stroke="none" stroke-width="1" fill="none" fill-rule="evenodd">
        <g id="attachment" transform="translate(-479.000000, -114.000000)" fill="#9299B9" fill-rule="nonzero">
            <g id="Right-Indent" transform="translate(479.000000, 114.000000)">
                <path d="M10.7894737,4.21052632 L0.526315789,4.21052632 C0.236842105,4.21052632 0,3.97368421 0,3.68421053 C0,3.39473684 0.236842105,3.15789474 0.526315789,3.15789474 L10.7894737,3.15789474 C11.0789474,3.15789474 11.3157895,3.39473684 11.3157895,3.68421053 C11.3157895,3.97368421 11.0789474,4.21052632 10.7894737,4.21052632 Z" id="Shape"></path>
                <path d="M10.7894737,8.42105263 L3.94736842,8.42105263 C3.65789474,8.42105263 3.42105263,8.18421053 3.42105263,7.89473684 C3.42105263,7.60526316 3.65789474,7.36842105 3.94736842,7.36842105 L10.7894737,7.36842105 C11.0789474,7.36842105 11.3157895,7.60526316 11.3157895,7.89473684 C11.3157895,8.18421053 11.0789474,8.42105263 10.7894737,8.42105263 Z" id="Shape"></path>
                <path d="M0.526315789,11.5789474 L10.7894737,11.5789474 C11.0789474,11.5789474 11.3157895,11.8157895 11.3157895,12.1052632 C11.3157895,12.3947368 11.0789474,12.6315789 10.7894737,12.6315789 L0.526315789,12.6315789 C0.236842105,12.6315789 0,12.3947368 0,12.1052632 C0,11.8157895 0.236842105,11.5789474 0.526315789,11.5789474 Z" id="Shape"></path>
                <path d="M6.05263158,15.7894737 L10.7894737,15.7894737 C11.0789474,15.7894737 11.3157895,16.0263158 11.3157895,16.3157895 C11.3157895,16.6052632 11.0789474,16.8421053 10.7894737,16.8421053 L6.05263158,16.8421053 C5.76315789,16.8421053 5.52631579,16.6052632 5.52631579,16.3157895 C5.52631579,16.0263158 5.76315789,15.7894737 6.05263158,15.7894737 Z" id="Shape"></path>
                <path d="M13.1578947,0 C13.4473684,0 13.6842105,0.236842105 13.6842105,0.526315789 L13.6842105,19.4736842 C13.6842105,19.7631579 13.4473684,20 13.1578947,20 C12.8684211,20 12.6315789,19.7631579 12.6315789,19.4736842 L12.6315789,0.526315789 C12.6315789,0.236842105 12.8684211,0 13.1578947,0 Z" id="Shape"></path>
                <path d="M14.5,10 C14.5,10.1578947 14.5789474,10.3157895 14.6842105,10.4210526 L19.2894737,14.0526316 C19.3947368,14.1052632 19.5,14.1578947 19.6315789,14.1578947 L19.8947368,14.1052632 C20.1052632,14.0263158 20.2368421,13.8421053 20.2631579,13.6315789 L20.2631579,10.5263158 L23.1578947,10.5263158 C23.4473684,10.5263158 23.6842105,10.2894737 23.6842105,10 C23.6842105,9.71052632 23.4473684,9.47368421 23.1578947,9.47368421 L20.2631579,9.47368421 L20.2631579,6.36842105 C20.2368421,6.15789474 20.1052632,5.97368421 19.8947368,5.89473684 C19.6842105,5.81578947 19.4736842,5.84210526 19.2894737,5.94736842 L14.6842105,9.57894737 C14.5526316,9.68421053 14.5,9.84210526 14.5,10 Z" id="Shape"></path>
            </g>
        </g>
    </g>
</svg>