<?xml version="1.0" encoding="UTF-8"?>
<svg width="15px" height="15px" viewBox="0 0 15 15" version="1.1" xmlns="http://www.w3.org/2000/svg" xmlns:xlink="http://www.w3.org/1999/xlink">
    <!-- Generator: Sketch 51.2 (57519) - http://www.bohemiancoding.com/sketch -->
    <title>save</title>
    <desc>Created with Sketch.</desc>
    <defs></defs>
    <g id="Page-1" stroke="none" stroke-width="1" fill="none" fill-rule="evenodd">
        <g id="attachment" transform="translate(-30.000000, -117.000000)" fill="#9299B9" fill-rule="nonzero">
            <g id="save" transform="translate(30.000000, 117.000000)">
                <path d="M5.625,2.5 L9.375,2.5 C9.72017797,2.5 10,2.22017797 10,1.875 L10,0 L5,0 L5,1.875 C5,2.22017797 5.27982203,2.5 5.625,2.5 Z" id="Shape"></path>
                <path d="M9.375,10 L5.625,10 C5.27982203,10 5,10.279822 5,10.625 L5,15 L10,15 L10,10.625 C10,10.279822 9.72017797,10 9.375,10 Z" id="Shape"></path>
                <path d="M1.25,15 L3.75,15 L3.75,10.625 C3.75,9.58946609 4.58946609,8.75 5.625,8.75 L9.375,8.75 C10.4105339,8.75 11.25,9.58946609 11.25,10.625 L11.25,15 L13.75,15 C14.4403559,15 15,14.4403559 15,13.75 L15,2.5 L12.5,0 L11.25,0 L11.25,1.875 C11.25,2.91053391 10.4105339,3.75 9.375,3.75 L5.625,3.75 C4.58946609,3.75 3.75,2.91053391 3.75,1.875 L3.75,0 L1.25,0 C0.559644063,0 0,0.559644063 0,1.25 L0,13.75 C0,14.4403559 0.559644063,15 1.25,15 Z" id="Shape"></path>
            </g>
        </g>
    </g>
</svg>