<?xml version="1.0" encoding="UTF-8"?>
<svg width="17px" height="16px" viewBox="0 0 17 16" version="1.1" xmlns="http://www.w3.org/2000/svg" xmlns:xlink="http://www.w3.org/1999/xlink">
    <!-- Generator: Sketch 51.2 (57519) - http://www.bohemiancoding.com/sketch -->
    <title>sheet</title>
    <desc>Created with Sketch.</desc>
    <defs></defs>
    <g id="Page-1" stroke="none" stroke-width="1" fill="none" fill-rule="evenodd">
        <g id="attachment" transform="translate(-123.000000, -112.000000)" fill="#9299B9" fill-rule="nonzero">
            <g id="sheet" transform="translate(123.000000, 112.000000)">
                <path d="M16.3928571,15.5646259 L0.607142857,15.5646259 C0.272,15.5646259 0,15.2964354 0,14.9659864 L0,0.598639456 C0,0.268190476 0.272,0 0.607142857,0 L16.3928571,0 C16.728,0 17,0.268190476 17,0.598639456 L17,14.9659864 C17,15.2964354 16.728,15.5646259 16.3928571,15.5646259 Z M1.21428571,14.3673469 L15.7857143,14.3673469 L15.7857143,1.19727891 L1.21428571,1.19727891 L1.21428571,14.3673469 Z" id="Shape"></path>
                <path d="M13.3985776,4.02721088 L2.72856685,4.02721088 C2.50203431,4.02721088 2.31818182,3.75902041 2.31818182,3.42857143 C2.31818182,3.09812245 2.50203431,2.82993197 2.72856685,2.82993197 L13.3985776,2.82993197 C13.6251101,2.82993197 13.8089626,3.09812245 13.8089626,3.42857143 C13.8089626,3.75902041 13.6251101,4.02721088 13.3985776,4.02721088 Z" id="Shape"></path>
                <path d="M9.02435065,6.85714286 L2.56655844,6.85714286 C2.42945455,6.85714286 2.31818182,6.58895238 2.31818182,6.2585034 C2.31818182,5.92805442 2.42945455,5.65986395 2.56655844,5.65986395 L9.02435065,5.65986395 C9.16145455,5.65986395 9.27272727,5.92805442 9.27272727,6.2585034 C9.27272727,6.58895238 9.16145455,6.85714286 9.02435065,6.85714286 Z" id="Shape"></path>
                <path d="M11.2597403,9.68707483 L2.64935065,9.68707483 C2.46654545,9.68707483 2.31818182,9.41888435 2.31818182,9.08843537 C2.31818182,8.75798639 2.46654545,8.48979592 2.64935065,8.48979592 L11.2597403,8.48979592 C11.4425455,8.48979592 11.5909091,8.75798639 11.5909091,9.08843537 C11.5909091,9.41888435 11.4425455,9.68707483 11.2597403,9.68707483 Z" id="Shape"></path>
                <path d="M14.2402597,12.952381 L2.75974026,12.952381 C2.516,12.952381 2.31818182,12.6841905 2.31818182,12.3537415 C2.31818182,12.0232925 2.516,11.755102 2.75974026,11.755102 L14.2402597,11.755102 C14.484,11.755102 14.6818182,12.0232925 14.6818182,12.3537415 C14.6818182,12.6841905 14.484,12.952381 14.2402597,12.952381 Z" id="Shape"></path>
            </g>
        </g>
    </g>
</svg>