<?xml version="1.0" encoding="UTF-8"?>
<svg width="13px" height="13px" viewBox="0 0 13 13" version="1.1" xmlns="http://www.w3.org/2000/svg" xmlns:xlink="http://www.w3.org/1999/xlink">
    <!-- Generator: Sketch 51.2 (57519) - http://www.bohemiancoding.com/sketch -->
    <title>strikethrough</title>
    <desc>Created with Sketch.</desc>
    <defs></defs>
    <g id="Page-1" stroke="none" stroke-width="1" fill="none" fill-rule="evenodd">
        <g id="attachment" transform="translate(-667.000000, -118.000000)" fill="#9299B9" fill-rule="nonzero">
            <g id="strikethrough" transform="translate(667.000000, 118.000000)">
                <g id="Group">
                    <polygon id="Shape" points="0.203125 6.06754032 12.8337323 6.06754032 12.8337323 7.29611895 0.203125 7.29611895"></polygon>
                    <path d="M3.07144668,5.53515635 L7.53200605,5.53515635 L6.01266376,4.79637097 C5.1805065,4.39339718 4.62846527,4.01253785 4.35735887,3.65297379 C4.07642384,3.30323835 3.93636603,2.88224552 3.93636603,2.39163306 C3.93636603,1.9976689 4.12474798,1.63810484 4.5015121,1.31376008 C4.87827621,0.990234323 5.37380287,0.828062048 5.98727329,0.828062048 C6.79240166,0.828062048 7.45665323,1.05985394 7.97757056,1.5242565 C8.4993069,1.98865927 8.92603316,2.86504526 9.25938755,4.15259587 L9.69266623,4.15259587 L9.69266623,0.0524193548 L9.25856855,0.0524193548 C9.15372984,0.262915774 9.06117697,0.398878581 8.98254794,0.459488355 C8.9039189,0.520917339 8.79416577,0.552041226 8.65410797,0.552041226 C8.50504032,0.552041226 8.20690524,0.486517032 7.75970252,0.354649645 C7.08480332,0.153162855 6.51146684,0.0524193548 6.03887344,0.0524193548 C4.96100045,0.0524193548 4.08215726,0.385773742 3.40398185,1.05084431 C2.72498745,1.71673387 2.38508065,2.54479592 2.38508065,3.53503024 C2.38508065,4.2967491 2.58247223,4.92741935 2.97643639,5.42704123 C3.00428427,5.46307974 3.03868458,5.49911784 3.07144668,5.53515635 Z" id="Shape"></path>
                    <path d="M6.77356361,7.82850313 C7.34280489,8.1594001 7.75888352,8.44934476 8.01688508,8.6999749 C8.44115413,9.11113911 8.65410797,9.61977061 8.65410797,10.2234122 C8.65410797,10.7230343 8.4632686,11.1505797 8.08240927,11.5052294 C7.70073074,11.859879 7.20848029,12.0376134 6.60401971,12.0376134 C5.74483377,12.0376134 4.97001008,11.7263734 4.27791084,11.1038936 C3.58581139,10.482233 3.1164944,9.55834184 2.87159768,8.33140121 L2.4375,8.33140121 L2.4375,12.6281501 L2.87159768,12.6281501 C2.98544602,12.4004536 3.14270408,12.2866053 3.34501008,12.2866053 C3.52847782,12.2866053 3.76518392,12.3308342 4.05430958,12.4184727 C5.00031497,12.6805695 5.84148185,12.812437 6.57781003,12.812437 C7.60244445,12.812437 8.52879279,12.4774445 9.35685484,11.8074597 C10.1840977,11.1366557 10.5985383,10.2545363 10.5985383,9.15864426 C10.5985383,8.68441285 10.4969758,8.24130555 10.297127,7.82850313 L6.77356361,7.82850313 Z" id="Shape"></path>
                </g>
            </g>
        </g>
    </g>
</svg>