<?xml version="1.0" encoding="UTF-8"?>
<svg width="17px" height="16px" viewBox="0 0 17 16" version="1.1" xmlns="http://www.w3.org/2000/svg" xmlns:xlink="http://www.w3.org/1999/xlink">
    <!-- Generator: Sketch 51.2 (57519) - http://www.bohemiancoding.com/sketch -->
    <title>table</title>
    <desc>Created with Sketch.</desc>
    <defs></defs>
    <g id="Page-1" stroke="none" stroke-width="1" fill="none" fill-rule="evenodd">
        <g id="attachment" transform="translate(-826.000000, -116.000000)" fill="#9299B9" fill-rule="nonzero">
            <g id="table" transform="translate(826.000000, 116.000000)">
                <path d="M16.3928571,15.5646259 L0.607142857,15.5646259 C0.272,15.5646259 0,15.2964354 0,14.9659864 L0,0.598639456 C0,0.268190476 0.272,0 0.607142857,0 L16.3928571,0 C16.728,0 17,0.268190476 17,0.598639456 L17,14.9659864 C17,15.2964354 16.728,15.5646259 16.3928571,15.5646259 Z M1.21428571,14.3673469 L15.7857143,14.3673469 L15.7857143,1.19727891 L1.21428571,1.19727891 L1.21428571,14.3673469 Z" id="Shape"></path>
                <path d="M16.3928571,6.0952381 L0.607142857,6.0952381 C0.272,6.0952381 0,5.82704762 0,5.49659864 C0,5.16614966 0.272,4.89795918 0.607142857,4.89795918 L16.3928571,4.89795918 C16.728,4.89795918 17,5.16614966 17,5.49659864 C17,5.82704762 16.728,6.0952381 16.3928571,6.0952381 Z" id="Shape"></path>
                <path d="M16.3928571,11.2108844 L0.607142857,11.2108844 C0.272,11.2108844 0,10.9426939 0,10.6122449 C0,10.2817959 0.272,10.0136054 0.607142857,10.0136054 L16.3928571,10.0136054 C16.728,10.0136054 17,10.2817959 17,10.6122449 C17,10.9426939 16.728,11.2108844 16.3928571,11.2108844 Z" id="Shape"></path>
                <path d="M8.55519481,15.5646259 C8.22005195,15.5646259 7.94805195,15.2330449 7.94805195,14.8244898 L7.94805195,1.50204082 C7.94805195,1.09348571 8.22005195,0.761904762 8.55519481,0.761904762 C8.89033766,0.761904762 9.16233766,1.09348571 9.16233766,1.50204082 L9.16233766,14.8244898 C9.16233766,15.2330449 8.89033766,15.5646259 8.55519481,15.5646259 Z" id="Shape"></path>
            </g>
        </g>
    </g>
</svg>