<?xml version="1.0" encoding="UTF-8"?>
<svg width="18px" height="16px" viewBox="0 0 18 16" version="1.1" xmlns="http://www.w3.org/2000/svg" xmlns:xlink="http://www.w3.org/1999/xlink">
    <!-- Generator: Sketch 51.2 (57519) - http://www.bohemiancoding.com/sketch -->
    <title>Text Warp </title>
    <desc>Created with Sketch.</desc>
    <defs></defs>
    <g id="Page-1" stroke="none" stroke-width="1" fill="none" fill-rule="evenodd">
        <g id="attachment" transform="translate(-957.000000, -116.000000)" fill="#9299B9" fill-rule="nonzero">
            <g id="Text-Warp-" transform="translate(957.000000, 116.000000)">
                <path d="M12.6898831,4.92374843 C13.0959745,4.92375643 13.5133148,4.92355422 13.9272383,4.92307902 C16.034772,4.92065952 17.704884,6.91276172 17.6989811,9.26367052 C17.6924528,11.8636033 16.0315639,13.5384615 13.9533239,13.5384615 L12.6421405,13.5384615 L12.6421405,16 L8.84949833,12.3076923 L12.6421405,8.61538462 L12.6421405,11.0769231 L13.9533239,11.0769231 C14.6194551,11.0769231 15.1719396,10.5197918 15.1751089,9.25764246 C15.1778321,8.17305612 14.516266,7.38394302 13.9302091,7.38461575 C13.2078014,7.38544517 12.4753177,7.38544517 11.8099001,7.38494757 C11.5229237,7.38469883 11.5229237,7.38469883 11.4575743,7.38461563 L1.25862306,7.38461538 C0.563504739,7.38461538 0,6.83832025 0,6.15384615 C0,5.47411114 0.562369146,4.92307692 1.25862306,4.92307692 L12.6477315,4.92307692 C12.6618374,4.92307692 12.6758892,4.92330191 12.6898831,4.92374843 Z M0,1.23076923 C0,0.551034154 0.568831543,0 1.27286819,0 L16.4261284,0 C17.1291141,0 17.6989967,0.546295163 17.6989967,1.23076923 C17.6989967,1.91050431 17.1301651,2.46153846 16.4261284,2.46153846 L1.27286819,2.46153846 C0.569882497,2.46153846 0,1.9152433 0,1.23076923 Z M0,12.3076923 C0,11.6279573 0.570129157,11.0769231 1.25255543,11.0769231 L6.33272882,11.0769231 C7.02449612,11.0769231 7.58528428,11.6232182 7.58528428,12.3076923 C7.58528428,12.9874273 7.0151551,13.5384615 6.33272882,13.5384615 L1.25255543,13.5384615 C0.560788171,13.5384615 0,12.9921664 0,12.3076923 Z" id="Shape"></path>
            </g>
        </g>
    </g>
</svg>