<?xml version="1.0" encoding="UTF-8"?>
<svg width="18px" height="19px" viewBox="0 0 18 19" version="1.1" xmlns="http://www.w3.org/2000/svg" xmlns:xlink="http://www.w3.org/1999/xlink">
    <!-- Generator: Sketch 51.2 (57519) - http://www.bohemiancoding.com/sketch -->
    <title>text fill</title>
    <desc>Created with Sketch.</desc>
    <defs></defs>
    <g id="Page-1" stroke="none" stroke-width="1" fill="none" fill-rule="evenodd">
        <g id="attachment" transform="translate(-771.000000, -115.000000)">
            <g id="text-fill" transform="translate(772.000000, 115.000000)">
                <g id="noun_paint_1264489" fill="#9299B9" fill-rule="nonzero">
                    <g id="Group">
                        <g id="Shape">
                            <g>
                                <path d="M7.38802051,0.221779264 L5.02494359,2.53348495 L2.69304615,0.229404682 L1.81837949,1.07622742 L5.84873846,5.05870234 C5.82166154,5.15582609 5.80237949,5.25616054 5.80237949,5.36171237 C5.80237949,5.99863545 6.32996923,6.51475585 6.9806359,6.51475585 C7.63171282,6.51475585 8.15930256,5.99863545 8.15930256,5.36171237 C8.15930256,4.72519064 7.63171282,4.20907023 6.9806359,4.20907023 C6.89981538,4.20907023 6.8206359,4.21709699 6.74391795,4.23234783 L6.17940513,3.67408696 L7.3966359,2.48331773 L12.0440205,6.9602408 L11.1020718,7.34713043 L10.3422769,8.09040803 L3.15745641,8.09040803 L2.40832821,7.36318395 L4.49694359,5.32037458 L3.33673846,4.18498997 L0.0829948718,7.36759866 L6.76812308,13.8576321 L12.0345846,8.70525753 L14.9502769,7.50686288 L7.38802051,0.221779264 Z"></path>
                                <path d="M14.4352821,8.68258194 C14.4352821,8.68258194 13.2566154,10.0599732 13.2566154,10.6968963 C13.2566154,11.3334181 13.7846154,11.8495385 14.4352821,11.8495385 C15.0859487,11.8495385 15.6139487,11.3334181 15.6139487,10.6968963 C15.6139487,10.0599732 14.4352821,8.68258194 14.4352821,8.68258194"></path>
                            </g>
                        </g>
                    </g>
                </g>
                <rect id="Rectangle-18" stroke="#9299B9" stroke-width="0.5" fill="#FFFFFF" x="-0.25" y="16.1847826" width="16.5" height="2.06521739"></rect>
            </g>
        </g>
    </g>
</svg>